D:\school\WTK\thesis\model\3dpredictsim\Results\debug_batch\Pog_s1_tmt_aCst_d00_k800_ig24_pas_GRF.mot
nRows=30
nColumns=19

name D:\school\WTK\thesis\model\3dpredictsim\Results\debug_batch\Pog_s1_tmt_aCst_d00_k800_ig24_pas_GRF.mot
datacolumns 19
datarows 30
range 0.5565882128 0.8794093763
endheader
time 	ground_force_vx	ground_force_vy	ground_force_vz	ground_force_px	ground_force_py	ground_force_pz	1_ground_force_vx	1_ground_force_vy	1_ground_force_vz	1_ground_force_px	1_ground_force_py	1_ground_force_pz	ground_torque_x	ground_torque_y	ground_torque_z	1_ground_torque_x	1_ground_torque_y	1_ground_torque_z
        0.5565882128	       95.9582369747	      476.7091228707	        5.5078129079	        0.3739608888	        0.0000000000	        0.0347308360	      -94.8475734412	       89.0747567248	      -42.1707341537	        0.8654198582	        0.0000000000	       -0.0376704584	        0.0000000000	        0.0000000000	        0.0000000000	        0.0000000000	        0.0000000000	        0.0000000000	
        0.5677199771	       77.0565337970	      394.1481031932	       10.3740051935	        0.3780988506	        0.0000000000	        0.0334512563	      -89.8255211776	      188.6272796952	      -77.4192486167	        0.8715387874	        0.0000000000	       -0.0358893692	        0.0000000000	        0.0000000000	        0.0000000000	        0.0000000000	        0.0000000000	        0.0000000000	
        0.5788517414	       53.6190961707	      300.7564293560	        8.1118043638	        0.3847929039	        0.0000000000	        0.0307727142	      -46.5403449658	      345.6094755891	      -17.4776980194	        0.8756284181	        0.0000000000	       -0.0340970465	        0.0000000000	        0.0000000000	        0.0000000000	        0.0000000000	        0.0000000000	        0.0000000000	
        0.5899835056	       25.0413288179	      199.1761747101	        6.0660564502	        0.3972850184	        0.0000000000	        0.0250450374	      -50.4449486611	      513.9603144423	        2.2662408249	        0.8811867763	        0.0000000000	       -0.0351338456	        0.0000000000	        0.0000000000	        0.0000000000	        0.0000000000	        0.0000000000	        0.0000000000	
        0.6011152699	        6.6477264954	      140.1075650455	       10.4436586673	        0.4091360359	        0.0000000000	        0.0190144114	      -84.9441766509	      692.0036890433	        9.6863966744	        0.8892904724	        0.0000000000	       -0.0375988118	        0.0000000000	        0.0000000000	        0.0000000000	        0.0000000000	        0.0000000000	        0.0000000000	
        0.6122470341	        1.6107762396	      109.0634933492	       11.5117141405	        0.4092388833	        0.0000000000	        0.0192539345	     -106.7581572194	      800.9609838121	       12.7087380620	        0.8948785560	        0.0000000000	       -0.0391872904	        0.0000000000	        0.0000000000	        0.0000000000	        0.0000000000	        0.0000000000	        0.0000000000	
        0.6233787984	       -2.1416128493	       71.3564141661	       10.7271352492	        0.4097238796	        0.0000000000	        0.0193251609	     -110.9360713145	      838.7867946752	       13.4872779434	        0.8987317405	        0.0000000000	       -0.0401359329	        0.0000000000	        0.0000000000	        0.0000000000	        0.0000000000	        0.0000000000	        0.0000000000	
        0.6345105626	       -8.0913510020	       29.5235583474	        5.7980731759	        0.4093878403	        0.0000000000	        0.0191569748	     -105.9288198922	      834.3993675918	       13.5479094015	        0.9018861759	        0.0000000000	       -0.0406911167	        0.0000000000	        0.0000000000	        0.0000000000	        0.0000000000	        0.0000000000	        0.0000000000	
        0.6456423269	        0.1122146981	       -0.1113994054	       -0.0025016772	        0.0000000000	        0.0000000000	        0.0000000000	      -96.8963642036	      816.4900129735	       13.8572750476	        0.9051670983	        0.0000000000	       -0.0409645845	        0.0000000000	        0.0000000000	        0.0000000000	        0.0000000000	        0.0000000000	        0.0000000000	
        0.6567740912	        0.0001732216	       -0.0001406838	        0.0000098690	        0.0000000000	        0.0000000000	        0.0000000000	      -84.8620917289	      787.9706163639	       14.5571400186	        0.9085924096	        0.0000000000	       -0.0410766499	        0.0000000000	        0.0000000000	        0.0000000000	        0.0000000000	        0.0000000000	        0.0000000000	
        0.6679058554	        0.0000832774	       -0.0000587615	        0.0000061896	        0.0000000000	        0.0000000000	        0.0000000000	      -74.0531325476	      755.8105631789	       15.0005233838	        0.9126287000	        0.0000000000	       -0.0410905714	        0.0000000000	        0.0000000000	        0.0000000000	        0.0000000000	        0.0000000000	        0.0000000000	
        0.6790376197	        0.0008664393	       -0.0005476482	        0.0000716595	        0.0000000000	        0.0000000000	        0.0000000000	      -64.6343364799	      725.2859260893	       15.2075878554	        0.9171718695	        0.0000000000	       -0.0409941359	        0.0000000000	        0.0000000000	        0.0000000000	        0.0000000000	        0.0000000000	        0.0000000000	
        0.6901693839	        0.0044344846	       -0.0025687773	        0.0003882635	        0.0000000000	        0.0000000000	        0.0000000000	      -55.1799041438	      694.8210837271	       15.7393057866	        0.9217092758	        0.0000000000	       -0.0409078557	        0.0000000000	        0.0000000000	        0.0000000000	        0.0000000000	        0.0000000000	        0.0000000000	
        0.7013011482	       -0.0330232730	        0.0178066831	       -0.0030017157	        0.0000000000	        0.0000000000	        0.0000000000	      -46.2545609314	      666.1262632079	       16.3177767380	        0.9262065708	        0.0000000000	       -0.0408786215	        0.0000000000	        0.0000000000	        0.0000000000	        0.0000000000	        0.0000000000	        0.0000000000	
        0.7124329124	       -0.0220917699	        0.0112088868	       -0.0020699296	        0.0000000000	        0.0000000000	        0.0000000000	      -38.4819350382	      641.3845895460	       16.8375764432	        0.9307027629	        0.0000000000	       -0.0408943048	        0.0000000000	        0.0000000000	        0.0000000000	        0.0000000000	        0.0000000000	        0.0000000000	
        0.7235646767	       -0.0153107756	        0.0073745494	       -0.0014683814	        0.0000000000	        0.0000000000	        0.0000000000	      -31.8984215575	      620.8336213800	       17.4330420144	        0.9352315442	        0.0000000000	       -0.0409352447	        0.0000000000	        0.0000000000	        0.0000000000	        0.0000000000	        0.0000000000	        0.0000000000	
        0.7346964410	       -0.0136972931	        0.0063100477	       -0.0013339333	        0.0000000000	        0.0000000000	        0.0000000000	      -26.2975178673	      604.7260899083	       17.8864423076	        0.9400448644	        0.0000000000	       -0.0409813922	        0.0000000000	        0.0000000000	        0.0000000000	        0.0000000000	        0.0000000000	        0.0000000000	
        0.7458282052	       -0.0163785360	        0.0072572322	       -0.0016113547	        0.0000000000	        0.0000000000	        0.0000000000	      -22.2282587066	      593.4625364044	       18.0741105943	        0.9452074335	        0.0000000000	       -0.0410032516	        0.0000000000	        0.0000000000	        0.0000000000	        0.0000000000	        0.0000000000	        0.0000000000	
        0.7569599695	       -0.0252195154	        0.0107987317	       -0.0024853637	        0.0000000000	        0.0000000000	        0.0000000000	      -18.9873770236	      586.2558577129	       18.0433767850	        0.9507098331	        0.0000000000	       -0.0409820324	        0.0000000000	        0.0000000000	        0.0000000000	        0.0000000000	        0.0000000000	        0.0000000000	
        0.7680917337	       -0.0466660453	        0.0193930173	       -0.0045766205	        0.0000000000	        0.0000000000	        0.0000000000	      -17.3941229241	      582.3555330086	       18.0573534931	        0.9564551357	        0.0000000000	       -0.0409061244	        0.0000000000	        0.0000000000	        0.0000000000	        0.0000000000	        0.0000000000	        0.0000000000	
        0.7792234980	       -0.0955456091	        0.0386923381	       -0.0092875397	        0.0000000000	        0.0000000000	        0.0000000000	      -16.5429699761	      580.8837513798	       17.8035034325	        0.9622348133	        0.0000000000	       -0.0407903989	        0.0000000000	        0.0000000000	        0.0000000000	        0.0000000000	        0.0000000000	        0.0000000000	
        0.7903552622	       -0.1996557287	        0.0790846617	       -0.0191742902	        0.0000000000	        0.0000000000	        0.0000000000	      -15.3625668784	      580.5516880879	       17.6316556860	        0.9680716683	        0.0000000000	       -0.0406396558	        0.0000000000	        0.0000000000	        0.0000000000	        0.0000000000	        0.0000000000	        0.0000000000	
        0.8014870265	       -0.3969262955	        0.1543411158	       -0.0375853715	        0.0000000000	        0.0000000000	        0.0000000000	      -14.1120622482	      580.2185162990	       17.4431081784	        0.9738954108	        0.0000000000	       -0.0404648186	        0.0000000000	        0.0000000000	        0.0000000000	        0.0000000000	        0.0000000000	        0.0000000000	
        0.8126187908	       -0.7092405676	        0.2717031155	       -0.0660486636	        0.0000000000	        0.0000000000	        0.0000000000	      -12.6017566651	      579.2149501509	       17.1907326096	        0.9796385016	        0.0000000000	       -0.0402790898	        0.0000000000	        0.0000000000	        0.0000000000	        0.0000000000	        0.0000000000	        0.0000000000	
        0.8237505550	       -1.1033675708	        0.4178135860	       -0.1007036470	        0.0000000000	        0.0000000000	        0.0000000000	      -10.6778920658	      576.8735680260	       16.9370777924	        0.9852793028	        0.0000000000	       -0.0400892992	        0.0000000000	        0.0000000000	        0.0000000000	        0.0000000000	        0.0000000000	        0.0000000000	
        0.8348823193	       -1.4836534697	        0.5569464175	       -0.1318391434	        0.0000000000	        0.0000000000	        0.0000000000	       -8.1815381163	      572.7776938284	       16.6526461422	        0.9908224763	        0.0000000000	       -0.0398978239	        0.0000000000	        0.0000000000	        0.0000000000	        0.0000000000	        0.0000000000	        0.0000000000	
        0.8460140835	       -1.7470849814	        0.6516021142	       -0.1494653290	        0.0000000000	        0.0000000000	        0.0000000000	       -4.8210828414	      567.0240193904	       15.9415313395	        0.9963516050	        0.0000000000	       -0.0397014223	        0.0000000000	        0.0000000000	        0.0000000000	        0.0000000000	        0.0000000000	        0.0000000000	
        0.8571458478	       -1.8454430054	        0.6847886127	       -0.1492586458	        0.0000000000	        0.0000000000	        0.0000000000	       -0.6243129665	      559.7868856632	       14.6630662901	        1.0018943829	        0.0000000000	       -0.0394953352	        0.0000000000	        0.0000000000	        0.0000000000	        0.0000000000	        0.0000000000	        0.0000000000	
        0.8682776120	       -1.7801507978	        0.6577814513	       -0.1325235408	        0.0000000000	        0.0000000000	        0.0000000000	        3.3832066769	      552.8707766235	       12.7832602217	        1.0075105593	        0.0000000000	       -0.0392700716	        0.0000000000	        0.0000000000	        0.0000000000	        0.0000000000	        0.0000000000	        0.0000000000	
        0.8794093763	       -1.5689439882	        0.5777196404	       -0.1036384806	        0.0000000000	        0.0000000000	        0.0000000000	        6.8749977566	      547.5826934792	       10.5691709643	        1.0131155961	        0.0000000000	       -0.0390252824	        0.0000000000	        0.0000000000	        0.0000000000	        0.0000000000	        0.0000000000	        0.0000000000	
